PathFileType	4	(X/Y/Z)	D:\TRACE\v60_Jaco2_6-2-23\BothDRS_Motion3_10-v60.trc
DataRate	CameraRate	NumFrames	NumMarkers	Units	OrigDataRate	OrigDataStartFrame	OrigNumFrames
100.00	100.00	      17	9	mm	100.00	4376	      7000
Frame#	Time	front left toe			Front right toe			aft left toe			aft right toe			Arm			FL body			FR body			AL Body			AR Body			
		X1	Y1	Z1	X2	Y2	Z2	X3	Y3	Z3	X4	Y4	Z4	X5	Y5	Z5	X6	Y6	Z6	X7	Y7	Z7	X8	Y8	Z8	X9	Y9	Z9	

4376	43.750	-120.99893	-6.39722	-246.05136	266.07687	-8.07497	-285.01932	-102.64509	38.17905	335.32819	257.02029	39.05393	367.07123	103.26468	1032.31567	-706.12842	-7.10086	478.90103	-442.06650	150.83842	473.34274	-443.90253	16.45311	621.49890	491.22766	168.12697	606.41913	490.01743	
4377	43.760	-120.41534	-4.01558	-245.07729	266.22717	-8.23426	-285.06390	-102.32546	38.65186	336.55182	255.93240	39.64017	367.62991	102.63092	1033.40942	-707.09277	-6.88492	479.10068	-442.32480	150.94759	473.48227	-444.62408	17.63875	623.11310	490.70059	168.65640	607.90063	489.18356	
4378	43.770	-117.83185	-0.23814	-242.74635	266.26251	-8.09212	-285.00183	-101.11410	39.24998	336.51868	254.76280	43.66605	371.43048	102.66169	1034.21655	-708.27185	-6.94917	479.71768	-442.81317	151.37321	474.03607	-444.95190	18.68981	624.12793	490.23956	169.81764	609.10303	488.45636	
4379	43.780	-113.58150	5.56412	-240.89526	266.34509	-7.89236	-284.95108	-101.07819	39.15802	336.61038	252.92534	53.95713	370.43582	102.34492	1034.45557	-709.25806	-6.96594	480.67154	-443.33121	151.32631	474.45560	-445.57629	20.00625	624.52075	489.70380	169.86588	609.37512	487.84662	
4380	43.790	-111.90418	17.58349	-241.47462	266.34128	-7.80159	-284.96353	-101.34855	38.56860	336.68155	251.05695	61.22957	371.70062	102.61290	1033.96948	-709.45074	-6.82557	481.40555	-443.59824	150.73683	475.45657	-446.15424	20.66979	624.53564	489.54404	171.91124	608.88403	487.56784	
4381	43.800	-111.26547	28.47751	-242.01440	266.35995	-7.61783	-284.73816	-101.72191	38.42006	336.72464	251.08540	74.54215	368.84933	103.23480	1033.50793	-709.46613	-6.59038	481.66901	-443.71695	151.19583	475.38489	-446.55676	21.45418	624.16083	489.26239	172.84383	608.52313	487.22781	
4382	43.810	-112.41227	40.43956	-244.14259	266.70215	-7.33069	-284.39902	-101.64472	38.09643	336.73438	252.55261	84.46513	366.42053	103.79628	1033.75061	-709.42664	-6.23138	481.45309	-443.87039	151.47066	475.27945	-446.81631	21.85233	623.80200	489.06522	173.31580	608.00775	487.17227	
4383	43.820	-114.11853	53.26941	-246.32774	266.85193	-7.08189	-284.16879	-101.75765	37.63659	336.80786	255.71313	97.30212	363.61713	104.40990	1034.42468	-709.24860	-6.10092	481.43085	-444.14716	151.65042	475.09558	-446.92493	21.66371	622.99042	488.92419	173.37833	607.33337	486.93527	
4384	43.830	-115.40613	66.06647	-248.64270	266.99542	-6.73871	-284.04047	-101.77901	37.09284	337.02917	259.39468	109.76332	360.40521	105.03893	1034.98462	-708.54633	-5.93638	481.36130	-444.33118	151.70010	474.95215	-446.75711	21.51204	622.15924	488.92847	172.09465	606.53162	487.11310	
4385	43.840	-116.17325	78.21217	-251.09305	266.96063	-6.31338	-283.61240	-101.91442	36.65444	337.00388	261.47476	121.32343	357.51349	105.92141	1035.65649	-707.65387	-5.82819	481.34738	-444.46591	151.91451	474.82849	-446.71069	21.51921	621.51941	489.07217	173.12999	605.67987	487.41437	
4386	43.850	-116.76602	89.72918	-252.62114	266.52438	-6.17075	-283.42429	-101.73148	35.76412	336.98578	263.27417	132.70979	355.32834	106.09286	1036.60156	-706.90210	-5.80156	481.45419	-444.46964	151.97934	474.85483	-446.67474	20.97349	620.54987	489.27844	172.83484	604.73315	487.65125	
4387	43.860	-116.89799	100.43928	-254.76961	266.08420	-5.95735	-283.33441	-102.54474	35.61472	337.24316	263.88055	143.38519	353.39963	106.95642	1036.86902	-706.06067	-5.78239	481.59271	-444.30453	151.93146	475.06165	-446.54764	20.61171	619.95056	489.55457	172.55653	603.91278	488.11276	
4388	43.870	-117.85606	110.04493	-256.11490	265.85019	-5.58569	-283.29947	-102.30447	34.80954	337.60083	264.14557	152.66026	352.24045	107.63565	1037.29980	-705.40710	-5.53508	481.45016	-443.80267	151.78842	475.21722	-446.32010	20.28153	619.31366	489.89072	171.92815	603.21771	488.48837	
4389	43.880	-118.78939	118.00351	-257.33810	265.80798	-5.21609	-283.07706	-103.06832	34.82947	338.04337	263.78522	159.40445	351.37479	108.41309	1037.52747	-704.41119	-5.98157	481.99567	-443.90869	151.82706	475.54956	-445.71759	19.70027	618.88916	490.38159	171.16475	602.61981	488.88025	
4390	43.890	-120.36581	124.45911	-258.45215	265.88129	-4.56402	-282.55295	-103.26938	34.33257	338.19952	263.10025	163.48917	351.06235	108.49953	1037.52686	-703.92700	-5.85824	482.24246	-443.38303	151.99538	475.42114	-445.08664	19.02891	618.35107	490.90070	170.78145	602.26007	489.72156	
4391	43.900	-121.01611	126.83055	-258.19058	265.60410	-4.15162	-282.32645	-103.28532	33.83849	338.45758	262.68640	164.90799	351.21225	108.58499	1037.51074	-703.12744	-5.70854	482.50998	-442.92078	152.34174	475.45059	-444.53995	18.66999	617.91162	491.59586	170.40623	601.70349	490.61752	
4392	43.910	-122.31447	125.95103	-257.60236	265.54480	-3.68922	-281.89560	-103.36827	33.44091	338.60495	262.98184	163.62807	352.23666	108.63992	1037.70178	-702.01422	-5.46669	482.86038	-442.09637	152.41061	475.89703	-443.87607	17.45518	617.56720	492.27866	169.37277	601.28473	491.38782	
